<?xml version="1.0" encoding="UTF-8" standalone="no"?>
<!-- Created with Inkscape (http://www.inkscape.org/) -->

<svg
   xmlns:dc="http://purl.org/dc/elements/1.1/"
   xmlns:cc="http://creativecommons.org/ns#"
   xmlns:rdf="http://www.w3.org/1999/02/22-rdf-syntax-ns#"
   xmlns:svg="http://www.w3.org/2000/svg"
   xmlns="http://www.w3.org/2000/svg"
   xmlns:sodipodi="http://sodipodi.sourceforge.net/DTD/sodipodi-0.dtd"
   xmlns:inkscape="http://www.inkscape.org/namespaces/inkscape"
   id="svg4714"
   version="1.1"
   inkscape:version="0.92.1 r15371"
   xml:space="preserve"
   width="64"
   height="76"
   viewBox="0 0 64 76"
   sodipodi:docname="Target.svg"
   inkscape:export-filename="C:\Users\Fernickk\RitualHex\Magic Set Editor 2\data\ritual-icons.mse-symbol-font\Target.png"
   inkscape:export-xdpi="96"
   inkscape:export-ydpi="96"><metadata
     id="metadata4720"><rdf:RDF><cc:Work
         rdf:about=""><dc:format>image/svg+xml</dc:format><dc:type
           rdf:resource="http://purl.org/dc/dcmitype/StillImage" /><dc:title /></cc:Work></rdf:RDF></metadata><defs
     id="defs4718"><clipPath
       clipPathUnits="userSpaceOnUse"
       id="clipPath4734"><path
         d="m 495.68,244.871 c -62.383,0 -369.66,254.051 -369.66,460.942 0,206.906 172.043,207.085 172.043,207.085 0,0 157.25,4.391 197.73,-96.804 42.73,103.445 198.91,96.804 198.91,96.804 0,0 170.371,-3.609 170.371,-210.519 0,-206.887 -307.836,-457.508 -369.394,-457.508 z m -52,458.02 h 113.023 v -75.348 h 75.375 V 514.496 H 556.703 V 439.148 H 443.68 v 75.348 h -75.371 v 113.047 h 75.371 z"
         id="path4736"
         inkscape:connector-curvature="0"
         style="clip-rule:evenodd" /></clipPath></defs><sodipodi:namedview
     pagecolor="#ffffff"
     bordercolor="#666666"
     borderopacity="1"
     objecttolerance="10"
     gridtolerance="10"
     guidetolerance="10"
     inkscape:pageopacity="0"
     inkscape:pageshadow="2"
     inkscape:window-width="1197"
     inkscape:window-height="697"
     id="namedview4716"
     showgrid="false"
     inkscape:zoom="3.4625862"
     inkscape:cx="-5.4215625"
     inkscape:cy="26.038409"
     inkscape:window-x="75"
     inkscape:window-y="-8"
     inkscape:window-maximized="1"
     inkscape:current-layer="g4722"
     fit-margin-top="0"
     fit-margin-left="0"
     fit-margin-right="0"
     fit-margin-bottom="0" /><g
     id="g4722"
     inkscape:groupmode="layer"
     inkscape:label="ink_ext_XXXXXX"
     transform="matrix(1.25,0,0,-1.25,-11.576636,119.60488)"><path
       style="stroke-width:0.508919"
       inkscape:connector-curvature="0"
       d="m 53.687465,75.149779 0.861093,5.357899 -6.408821,-2.903379 c 0,0 -0.583223,-0.302281 -0.55625,-1.199017 0.0272,-0.89824 0.293156,-2.82501 0.293156,-2.82501 L 39.484058,69.828014 C 34.473243,80.569767 25.09183,86.801483 18.153227,83.824307 10.995279,80.753997 9.1473962,69.047843 14.024875,57.679098 18.902354,46.309336 28.658333,39.581935 35.816789,42.653772 c 7.0012,3.003128 8.917791,14.268052 4.434212,25.398621 l 8.424138,3.766004 c 0,0 1.273315,-1.470776 1.929819,-2.083516 0.655998,-0.612736 1.268226,-0.373048 1.268226,-0.373048 l 6.409325,2.903384 z M 35.503786,47.698176 c -4.959924,-2.127792 -12.094462,3.40518 -15.935273,12.3591 -3.84132,8.952907 -2.934428,17.936343 2.024986,20.064136 4.773663,2.047889 11.561117,-3.002622 15.488445,-11.366708 L 35.145,67.888521 c -2.998552,6.392027 -7.554396,10.486789 -10.440477,9.248589 -3.028578,-1.29927 -3.070818,-7.977814 -0.09362,-14.916926 2.976669,-6.938602 7.845495,-11.510224 10.874583,-10.210445 2.91,1.248378 3.061658,7.463809 0.428019,14.103676 l 1.938475,0.866687 c 3.461665,-8.688776 2.467239,-17.216221 -2.348156,-19.281926 z m -1.391894,10.227748 c -1.50233,-0.644293 -4.100361,2.051451 -5.803714,6.021019 -1.70284,3.969568 -1.866204,7.710127 -0.363879,8.354925 1.396474,0.599 3.740555,-1.689608 5.432202,-5.204714 l -1.159313,-0.518591 c -0.700274,1.254999 -1.495204,2.036697 -1.953233,1.840253 -0.572535,-0.245291 -0.401038,-1.92422 0.382217,-3.750223 0.783225,-1.825494 1.88198,-3.106443 2.454516,-2.861652 0.493144,0.212211 0.433109,1.488588 -0.09415,3.005676 l 1.124202,0.502301 c 1.332859,-3.592459 1.360341,-6.797123 -0.01887,-7.388994 z"
       id="path6" /></g></svg>