<?xml version="1.0" encoding="UTF-8" standalone="no"?>
<!-- Created with Inkscape (http://www.inkscape.org/) -->

<svg
   xmlns:dc="http://purl.org/dc/elements/1.1/"
   xmlns:cc="http://creativecommons.org/ns#"
   xmlns:rdf="http://www.w3.org/1999/02/22-rdf-syntax-ns#"
   xmlns:svg="http://www.w3.org/2000/svg"
   xmlns="http://www.w3.org/2000/svg"
   xmlns:sodipodi="http://sodipodi.sourceforge.net/DTD/sodipodi-0.dtd"
   xmlns:inkscape="http://www.inkscape.org/namespaces/inkscape"
   id="svg4714"
   version="1.1"
   inkscape:version="0.92.1 r15371"
   xml:space="preserve"
   width="64"
   height="76"
   viewBox="0 0 64 76"
   sodipodi:docname="UsedBodyPart.svg"
   inkscape:export-filename="C:\Users\Fernickk\RitualHex\Magic Set Editor 2\data\ritual-icons.mse-symbol-font\UsedBodyPart.png"
   inkscape:export-xdpi="96"
   inkscape:export-ydpi="96"><metadata
     id="metadata4720"><rdf:RDF><cc:Work
         rdf:about=""><dc:format>image/svg+xml</dc:format><dc:type
           rdf:resource="http://purl.org/dc/dcmitype/StillImage" /><dc:title /></cc:Work></rdf:RDF></metadata><defs
     id="defs4718"><clipPath
       clipPathUnits="userSpaceOnUse"
       id="clipPath4734"><path
         d="m 495.68,244.871 c -62.383,0 -369.66,254.051 -369.66,460.942 0,206.906 172.043,207.085 172.043,207.085 0,0 157.25,4.391 197.73,-96.804 42.73,103.445 198.91,96.804 198.91,96.804 0,0 170.371,-3.609 170.371,-210.519 0,-206.887 -307.836,-457.508 -369.394,-457.508 z m -52,458.02 h 113.023 v -75.348 h 75.375 V 514.496 H 556.703 V 439.148 H 443.68 v 75.348 h -75.371 v 113.047 h 75.371 z"
         id="path4736"
         inkscape:connector-curvature="0"
         style="clip-rule:evenodd" /></clipPath></defs><sodipodi:namedview
     pagecolor="#ffffff"
     bordercolor="#666666"
     borderopacity="1"
     objecttolerance="10"
     gridtolerance="10"
     guidetolerance="10"
     inkscape:pageopacity="0"
     inkscape:pageshadow="2"
     inkscape:window-width="1197"
     inkscape:window-height="697"
     id="namedview4716"
     showgrid="false"
     inkscape:zoom="6.9473684"
     inkscape:cx="32"
     inkscape:cy="38"
     inkscape:window-x="75"
     inkscape:window-y="-8"
     inkscape:window-maximized="1"
     inkscape:current-layer="g4722"
     fit-margin-top="0"
     fit-margin-left="0"
     fit-margin-right="0"
     fit-margin-bottom="0" /><g
     id="g4722"
     inkscape:groupmode="layer"
     inkscape:label="ink_ext_XXXXXX"
     transform="matrix(1.25,0,0,-1.25,-11.576636,119.60488)"><g
       id="g3"
       transform="matrix(0.02768491,-0.05918356,-0.05918356,-0.02768491,48.067844,97.113795)"><path
         d="m 567.52,142.808 c -18.1,-2.46 -27.659,12.74 -28.846,29.688 l -13.495,134.416 c -0.252,6.244 -5.518,11.114 -11.769,10.862 -6.244,-0.245 -11.106,-5.51 -10.861,-11.768 L 510.735,65.963 C 511.333,48.979 498.06,34.729 481.078,34.125 464.094,33.521 449.844,46.8 449.231,63.776 l -7.999,238.13 c 0,5.036 -4.085,9.114 -9.114,9.114 -5.034,0 -9.112,-4.079 -9.112,-9.114 L 422.998,30.759 C 422.998,13.776 409.222,0 392.231,0 375.24,0 361.464,13.775 361.464,30.759 L 361.24,296.85 c 0,5.719 -4.633,10.322 -10.357,10.351 -8.366,0.043 -10.014,-7.826 -10.014,-7.826 C 340.668,298.559 330.611,62.933 330.611,62.933 329.726,45.964 315.248,32.929 298.286,33.821 281.315,34.698 268.274,49.186 269.167,66.148 l 15.919,336.895 c 1.61,10.121 -5.294,19.623 -15.415,21.234 -10.129,1.611 -19.631,-5.279 -21.242,-15.408 L 219.073,289.345 c -4.036,-16.516 -20.688,-26.615 -37.19,-22.587 -16.509,4.042 -26.615,20.695 -22.58,37.197 l 48.714,199.186 c 0.899,3.652 70.445,127.939 95.802,133.902 l -15.81095,110.28248 c 11.49176,71.59962 258.7018,56.81594 260.62067,-6.32438 L 520.169,630.428 c 35.88,-45.924 49.54,-132.113 50.116,-206.328 l 17.407,-248.525 c 1.178,-16.963 -3.57,-30.509 -20.172,-32.767 z"
         id="path5"
         inkscape:connector-curvature="0"
         sodipodi:nodetypes="ccccccsccsccsccccccccccccccccccccc" /></g></g></svg>