<?xml version="1.0" encoding="UTF-8" standalone="no"?>
<!-- Created with Inkscape (http://www.inkscape.org/) -->

<svg
   xmlns:dc="http://purl.org/dc/elements/1.1/"
   xmlns:cc="http://creativecommons.org/ns#"
   xmlns:rdf="http://www.w3.org/1999/02/22-rdf-syntax-ns#"
   xmlns:svg="http://www.w3.org/2000/svg"
   xmlns="http://www.w3.org/2000/svg"
   xmlns:sodipodi="http://sodipodi.sourceforge.net/DTD/sodipodi-0.dtd"
   xmlns:inkscape="http://www.inkscape.org/namespaces/inkscape"
   width="2.75in"
   height="3.75in"
   viewBox="0 0 825 1125"
   version="1.1"
   id="svg4504"
   inkscape:version="0.92.1 r15371"
   sodipodi:docname="card-normal.svg"
   inkscape:export-filename="D:\LargeFernickk\DarkRitual\Magic Set Editor 2\data\ritualhex-action.mse-style\card-normal.png"
   inkscape:export-xdpi="300"
   inkscape:export-ydpi="300">
  <defs
     id="defs4498" />
  <sodipodi:namedview
     id="base"
     pagecolor="#ffffff"
     bordercolor="#666666"
     borderopacity="1.0"
     inkscape:pageopacity="0.0"
     inkscape:pageshadow="2"
     inkscape:zoom="2.6458333"
     inkscape:cx="132"
     inkscape:cy="179.99997"
     inkscape:document-units="in"
     inkscape:current-layer="layer1"
     showgrid="false"
     units="in"
     inkscape:window-width="1858"
     inkscape:window-height="1058"
     inkscape:window-x="54"
     inkscape:window-y="260"
     inkscape:window-maximized="1"
     inkscape:object-paths="true"
     inkscape:snap-intersection-paths="true"
     inkscape:snap-smooth-nodes="true"
     inkscape:snap-midpoints="true" />
  <metadata
     id="metadata4501">
    <rdf:RDF>
      <cc:Work
         rdf:about="">
        <dc:format>image/svg+xml</dc:format>
        <dc:type
           rdf:resource="http://purl.org/dc/dcmitype/StillImage" />
        <dc:title></dc:title>
      </cc:Work>
    </rdf:RDF>
  </metadata>
  <g
     inkscape:label="Layer 1"
     inkscape:groupmode="layer"
     id="layer1"
     transform="translate(0,-2193.745)">
    <path
       style="fill:#fffffa;fill-opacity:1;stroke:#000000;stroke-width:0.96;stroke-miterlimit:4;stroke-dasharray:none;stroke-opacity:0.89949754"
       d="M 27.048828 17.449219 C 21.730428 17.449219 17.449219 21.730428 17.449219 27.048828 L 17.449219 332.95117 C 17.449219 338.26957 21.730428 342.55078 27.048828 342.55078 L 236.95117 342.55078 C 242.26957 342.55078 246.55078 338.26957 246.55078 332.95117 L 246.55078 27.048828 C 246.55078 21.730428 242.26957 17.449219 236.95117 17.449219 L 27.048828 17.449219 z M 205.40039 290.75391 L 227.48047 290.75391 C 230.67151 290.75391 233.24023 293.32263 233.24023 296.51367 L 233.24023 323.39453 C 233.24023 326.58557 230.67151 329.1543 227.48047 329.1543 L 205.40039 329.1543 C 202.20935 329.1543 199.64063 326.58557 199.64062 323.39453 L 199.64062 296.51367 C 199.64062 293.32263 202.20935 290.75391 205.40039 290.75391 z "
       id="rect5082"
       transform="matrix(3.125,0,0,3.125,0,2193.745)" />
    <rect
       ry="30"
       y="2248.2717"
       x="54.526657"
       height="1015.9467"
       width="715.94672"
       id="rect5090"
       style="fill:none;fill-opacity:1;stroke:#000000;stroke-width:34.05331039;stroke-miterlimit:4;stroke-dasharray:none;stroke-opacity:1" />
    <circle
       style="fill:none;fill-opacity:1;stroke:#000000;stroke-width:2.75203776;stroke-miterlimit:4;stroke-dasharray:none;stroke-opacity:1"
       id="path4492"
       cx="162.26828"
       cy="2360.498"
       r="58.623981" />
    <g
       id="g4524"
       transform="translate(-131.90385,-37.647639)">
      <g
         id="g4518">
        <path
           style="fill:#000000;stroke-width:0.7721858"
           d="m 276.41186,2362.5552 c 0,-1.5443 0.38609,-2.3165 1.15828,-2.3165 0.82736,0 1.15828,-0.8425 1.15828,-2.9486 0,-4.1391 1.86106,-9.9318 4.55565,-14.1798 2.00319,-3.1581 2.14664,-3.7368 1.1344,-4.577 -2.58027,-2.1414 -5.66737,-10.5918 -5.68169,-15.5526 -0.006,-2.0554 -0.34446,-2.8957 -1.16664,-2.8957 -0.77219,0 -1.15828,-0.7722 -1.15828,-2.3165 v -2.3166 h 17.76028 17.76027 v 2.3166 c 0,1.5443 -0.38609,2.3165 -1.15828,2.3165 -0.82217,0 -1.16071,0.8403 -1.16664,2.8957 -0.0143,4.9608 -3.10143,13.4112 -5.68169,15.5526 -1.01223,0.8402 -0.86878,1.4189 1.1344,4.577 2.6946,4.248 4.55566,10.0407 4.55566,14.1798 0,2.1061 0.33091,2.9486 1.15827,2.9486 0.77219,0 1.15828,0.7722 1.15828,2.3165 v 2.3166 h -17.76027 -17.76028 z"
           id="path4515"
           inkscape:connector-curvature="0" />
      </g>
      <path
         id="path4513"
         d="m 306.52711,2355.7457 c 0,-3.408 -2.52931,-9.4475 -5.23209,-12.4932 l -2.91426,-3.2839 2.4054,-2.413 c 2.37561,-2.3831 5.74095,-9.9254 5.74095,-12.8664 0,-1.4427 -0.59351,-1.5155 -12.35497,-1.5155 -11.76147,0 -12.35498,0.073 -12.35498,1.5155 0,2.941 3.36535,10.4833 5.74095,12.8664 l 2.40541,2.413 -2.91427,3.2839 c -1.65335,1.8631 -3.41568,4.9725 -4.07317,7.1865 -2.11942,7.1369 -2.83001,6.711 11.19606,6.711 11.42914,0 12.35497,-0.1053 12.35497,-1.4043 z"
         style="fill:#ffffff;stroke-width:0.7721858"
         inkscape:connector-curvature="0" />
      <path
         id="path4509"
         d="m 285.67809,2355.371 c 0,-1.1652 4.24083,-5.3587 6.68698,-6.6123 0.98623,-0.5055 1.55584,-1.4111 1.39389,-2.2162 -0.15064,-0.7488 -0.48386,-2.6716 -0.74049,-4.273 -0.31566,-1.9695 -1.33178,-3.6987 -3.14081,-5.3449 -2.29025,-2.0841 -4.97175,-7.9103 -4.97175,-10.8022 0,-0.3477 4.19741,-0.6321 9.32758,-0.6321 h 9.32758 l -0.54582,2.5096 c -0.89772,4.1276 -1.66374,5.6691 -4.321,8.6955 -1.96342,2.2362 -2.63479,3.8255 -2.99377,7.0869 -0.40975,3.7226 -0.28057,4.2972 1.12796,5.0176 2.37997,1.2171 6.60992,5.4222 6.60992,6.5711 0,0.7692 -2.09527,1.0068 -8.88013,1.0068 -6.78487,0 -8.88014,-0.2376 -8.88014,-1.0068 z"
         style="fill:#000000;stroke-width:0.7721858"
         inkscape:connector-curvature="0" />
    </g>
    <path
       style="fill:none;stroke:#000000;stroke-width:3.125px;stroke-linecap:butt;stroke-linejoin:miter;stroke-opacity:1"
       d="m 216.37172,2383.0721 505.12598,-0.4474"
       id="path4526"
       inkscape:connector-curvature="0" />
    <g
       transform="matrix(0.45312355,0,0,0.45312355,95.817631,2424.1161)"
       id="g8">
      <path
         style="fill:none"
         inkscape:connector-curvature="0"
         d="M 51.513,72.718 C 45.561,75.272 35.994,66.288 30.145,52.655 24.295,39.02 24.378,25.897 30.329,23.344 36,20.91 44.952,28.956 50.844,41.517 L 54.65,39.815 C 46.933,23.38 33.596,13.455 24.216,17.48 14.471,21.661 12.689,39.313 20.237,56.905 27.785,74.499 41.803,85.371 51.549,81.19 61.011,77.13 62.965,60.375 56.162,43.302 l -3.809,1.703 c 5.175,13.047 4.877,25.26 -0.84,27.713 z"
         id="path2" />
      <path
         style="fill:none"
         inkscape:connector-curvature="0"
         d="m 46.827,53.464 c -1.125,0.481 -3.285,-2.035 -4.823,-5.623 -1.539,-3.587 -1.875,-6.886 -0.751,-7.369 0.9,-0.386 2.462,1.15 3.838,3.616 l 2.278,-1.019 c -3.324,-6.906 -7.93,-11.403 -10.674,-10.227 -2.952,1.267 -2.631,8.617 0.715,16.417 3.347,7.799 8.452,13.096 11.404,11.831 2.71,-1.163 2.656,-7.46 0.038,-14.521 l -2.209,0.987 c 1.034,2.983 1.152,5.491 0.184,5.908 z"
         id="path4" />
      <path
         inkscape:connector-curvature="0"
         d="M 87.279,27.248 88.971,16.72 76.378,22.425 c 0,0 -1.146,0.594 -1.093,2.356 0.054,1.765 0.576,5.551 0.576,5.551 L 59.37,37.705 C 49.524,16.598 31.09,4.353 17.456,10.203 3.391,16.236 -0.24,39.238 9.344,61.577 18.928,83.918 38.098,97.137 52.164,91.101 65.921,85.2 69.687,63.065 60.877,41.194 l 16.553,-7.4 c 0,0 2.502,2.89 3.792,4.094 1.289,1.204 2.492,0.733 2.492,0.733 L 96.308,32.916 Z M 51.549,81.189 C 41.803,85.37 27.784,74.498 20.237,56.904 12.689,39.312 14.471,21.66 24.216,17.479 c 9.38,-4.024 22.717,5.9 30.434,22.335 l -3.806,1.702 C 44.952,28.956 36,20.91 30.329,23.343 c -5.951,2.553 -6.034,15.676 -0.184,29.311 5.849,13.634 15.416,22.617 21.368,20.063 5.718,-2.453 6.016,-14.666 0.841,-27.713 l 3.809,-1.703 c 6.802,17.073 4.848,33.829 -4.614,37.888 z M 48.814,61.092 c -2.952,1.266 -8.057,-4.031 -11.404,-11.831 -3.346,-7.8 -3.667,-15.15 -0.715,-16.417 2.744,-1.177 7.35,3.32 10.674,10.227 l -2.278,1.019 c -1.376,-2.466 -2.938,-4.002 -3.838,-3.616 -1.125,0.482 -0.788,3.781 0.751,7.369 1.539,3.587 3.698,6.104 4.823,5.623 0.969,-0.417 0.851,-2.925 -0.185,-5.906 l 2.209,-0.987 c 2.619,7.059 2.673,13.356 -0.037,14.519 z"
         id="path6" />
    </g>
    <g
       id="g3"
       transform="matrix(0.02062764,0.04409677,-0.04409677,0.02062764,128.18156,2469.7409)">
      <path
         d="m 567.52,142.808 c -18.1,-2.46 -27.659,12.74 -28.846,29.688 l -13.495,134.416 c -0.252,6.244 -5.518,11.114 -11.769,10.862 -6.244,-0.245 -11.106,-5.51 -10.861,-11.768 L 510.735,65.963 C 511.333,48.979 498.06,34.729 481.078,34.125 464.094,33.521 449.844,46.8 449.231,63.776 l -7.999,238.13 c 0,5.036 -4.085,9.114 -9.114,9.114 -5.034,0 -9.112,-4.079 -9.112,-9.114 L 422.998,30.759 C 422.998,13.776 409.222,0 392.231,0 375.24,0 361.464,13.775 361.464,30.759 L 361.24,296.85 c 0,5.719 -4.633,10.322 -10.357,10.351 -8.366,0.043 -10.014,-7.826 -10.014,-7.826 C 340.668,298.559 330.611,62.933 330.611,62.933 329.726,45.964 315.248,32.929 298.286,33.821 281.315,34.698 268.274,49.186 269.167,66.148 l 15.919,336.895 c 1.61,10.121 -5.294,19.623 -15.415,21.234 -10.129,1.611 -19.631,-5.279 -21.242,-15.408 L 219.073,289.345 c -4.036,-16.516 -20.688,-26.615 -37.19,-22.587 -16.509,4.042 -26.615,20.695 -22.58,37.197 l 48.714,199.186 c 0.899,3.652 70.445,127.939 95.802,133.902 l -15.81095,110.28248 c 11.49176,71.59962 258.7018,56.81594 260.62067,-6.32438 L 520.169,630.428 c 35.88,-45.924 49.54,-132.113 50.116,-206.328 l 17.407,-248.525 c 1.178,-16.963 -3.57,-30.509 -20.172,-32.767 z"
         id="path5"
         inkscape:connector-curvature="0"
         sodipodi:nodetypes="ccccccsccsccsccccccccccccccccccccc" />
    </g>
    <path
       style="fill:none;stroke:#000000;stroke-width:3.125px;stroke-linecap:butt;stroke-linejoin:miter;stroke-opacity:1"
       d="M 95.374016,2525.0442 H 729.62598"
       id="path4548"
       inkscape:connector-curvature="0" />
  </g>
</svg>
